<svg xmlns="http://www.w3.org/2000/svg" viewBox="0 0 200 32.53">
  <style>.ghost-white{fill:#ffffff}.ufo-green{fill:#37E284}</style>
  <g>
    <polygon class="ghost-white" points="79.49 .61 70.82 .61 70.82 31.88 94.64 31.88 94.64 24.29 79.49 24.29 79.49 .61"/>
    <polygon class="ghost-white" points="107.01 .61 98.35 .61 98.35 31.88 122.16 31.88 122.16 24.29 107.01 24.29 107.01 .61"/>
    <rect class="ghost-white" x="126.05" y=".61" width="8.71" height="31.28"/>
    <path class="ghost-white" d="M165.57,4.94c-1.5-1.37-3.35-2.44-5.54-3.19-2.19-.76-4.68-1.14-7.48-1.14h-12.06V31.88h11.89c2.8,0,5.31-.39,7.53-1.18,2.22-.79,4.09-1.88,5.61-3.28,1.52-1.4,2.68-3.06,3.49-4.98,.8-1.92,1.21-4.01,1.21-6.28v-.09c0-2.26-.4-4.34-1.18-6.23-.79-1.89-1.94-3.52-3.44-4.89Zm-4.22,11.35c0,2.53-.79,4.48-2.38,5.85-1.59,1.37-3.68,2.06-6.28,2.06h-3.54V8.29h3.54c2.6,0,4.69,.69,6.28,2.08,1.58,1.39,2.38,3.33,2.38,5.83v.09Z"/>
    <polygon class="ghost-white" points="183.2 24.51 183.2 19.55 198.21 19.55 198.21 12.71 183.2 12.71 183.2 7.98 199.78 7.98 199.78 .61 174.67 .61 174.67 31.88 200 31.88 200 24.51 183.2 24.51"/>
    <path class="ghost-white" d="M9.5,12.96c.37-1.01,.89-1.89,1.54-2.64,.65-.74,1.44-1.33,2.35-1.76,.91-.43,1.91-.65,3.02-.65,1.52,0,2.81,.33,3.89,.98,1.05,.64,2,1.51,2.88,2.6l5.88-5.88c-.5-.61-1.05-1.18-1.64-1.72-.88-.8-1.86-1.5-2.95-2.08-1.09-.58-2.29-1.03-3.6-1.34-1.31-.31-2.77-.47-4.38-.47-2.38,0-4.58,.42-6.59,1.25-2.01,.83-3.75,1.99-5.21,3.46-1.46,1.47-2.61,3.2-3.44,5.18-.83,1.98-1.25,4.1-1.25,6.37v.09c0,2.32,.42,4.48,1.27,6.46,.85,1.98,2,3.69,3.44,5.14,1.44,1.45,3.15,2.57,5.12,3.37,1.97,.8,4.07,1.21,6.3,1.21,1.73,0,3.28-.18,4.67-.54,1.39-.36,2.64-.85,3.75-1.47,1.12-.63,2.11-1.37,2.99-2.23,.48-.47,.94-.97,1.38-1.49l-5.7-5.7c-.4,.46-.8,.89-1.21,1.27-.49,.46-1.01,.86-1.56,1.21-.55,.34-1.16,.6-1.83,.78-.67,.18-1.41,.27-2.21,.27-1.1,0-2.11-.22-3.02-.65-.91-.43-1.69-1.02-2.35-1.76-.66-.74-1.17-1.63-1.54-2.66-.37-1.03-.56-2.12-.56-3.28v-.09c0-1.13,.19-2.2,.56-3.22Z"/>
    <polygon class="ghost-white" points="44.07 21.49 44.07 13.98 38.19 8.1 38.19 27.37 57.46 27.37 51.58 21.49 44.07 21.49"/>
    <polygon class="ufo-green" points="52.95 31.88 47.07 26 39.55 26 39.55 18.49 33.68 12.61 33.68 31.88 52.95 31.88"/>
    <polygon class="ghost-white" points="55.36 11 55.36 18.51 61.24 24.39 61.24 5.12 41.96 5.12 47.84 11 55.36 11"/>
    <polygon class="ufo-green" points="46.48 .61 52.36 6.48 59.87 6.48 59.87 14 65.75 19.88 65.75 .61 46.48 .61"/>
  </g>
</svg>